<?xml version="1.0" encoding="utf-8"?>
<!-- Generator: Adobe Illustrator 25.3.1, SVG Export Plug-In . SVG Version: 6.00 Build 0)  -->
<svg version="1.1" id="Ebene_1" xmlns="http://www.w3.org/2000/svg" xmlns:xlink="http://www.w3.org/1999/xlink" x="0px" y="0px"
	 viewBox="0 0 405.4 113.4" style="enable-background:new 0 0 405.4 113.4;" xml:space="preserve">
<style type="text/css">
	.st0{fill:#F08A16;}
	.st1{fill:#828282;}
</style>
<path class="st0" d="M84.2,31.1c-6.7,6.6-10.5,15.6-10.5,25c-0.2,9.4,3.5,18.5,10.3,25.1l25.1,25.1c2.8-2.7,4.4-6.5,4.3-10.5
	c0.1-3.9-1.5-7.7-4.3-10.5L94.5,70.8c-4-3.9-6.3-9.3-6.3-14.9c-0.2-5.6,2-11,6-14.9l4.8-4.8c2.7-2.6,4.2-6.2,4.1-9.9
	c0-3.7-1.5-7.3-4.1-9.9L84.2,31.1z"/>
<path class="st0" d="M56.2,73.8c-9.4-0.1-18.4,3.7-25,10.5L16.4,98.9c2.6,2.7,6.2,4.2,9.9,4.1c3.7,0.1,7.3-1.4,9.9-4.1l4.8-4.8
	c3.9-4,9.3-6.2,14.8-6c5.6,0,11,2.3,14.9,6.3l14.6,14.6c2.8,2.8,6.5,4.4,10.5,4.3c3.9,0.1,7.7-1.5,10.5-4.3L81.3,84.1
	c-6.4-6.7-15.3-10.4-24.6-10.3H56.2"/>
<path class="st1" d="M7,4.3l25.1,25.1c6.6,6.8,15.7,10.5,25.1,10.2c9.4,0.1,18.4-3.7,25-10.4l14.7-14.7C91.5,9,82.6,8.9,77.1,14.4
	c0,0,0,0,0,0l-4.8,4.8c-3.9,4-9.3,6.2-14.9,6c-5.6,0-11-2.3-14.9-6.3L28,4.3C25.2,1.5,21.4-0.1,17.5,0h-0.1C13.5-0.1,9.8,1.5,7,4.3"
	/>
<path class="st0" d="M0,17.5C0,21.4,1.5,25.2,4.3,28l14.6,14.6c4,3.9,6.3,9.3,6.3,14.9c0.2,5.6-2,11-6,14.9l-4.8,4.8
	c-2.7,2.6-4.2,6.2-4.1,9.9c0,3.7,1.5,7.3,4.2,9.9l14.7-14.7c6.7-6.6,10.5-15.6,10.5-25c0.3-9.5-3.5-18.6-10.3-25.2L4.3,7
	C1.5,9.8-0.1,13.6,0,17.5"/>
<rect x="186.3" y="22.3" class="st0" width="10.8" height="48.6"/>
<path class="st0" d="M208.4,60V33.3c0-7.2,6-11,11.7-11h16.7c6.3,0,11.4,3.8,11.4,11v3.8h-11.1v-2.8c0-1.3-0.6-2.2-1.8-2.2h-15.8
	v29.1h15.9c1.2,0,1.8-0.9,1.8-2.4V54h-8v-9.8h19.1V60c0,7.2-5.1,11-11.4,11h-17.1C213.5,71,208.4,67.2,208.4,60"/>
<polygon class="st0" points="259.4,22.3 269.9,22.3 290.5,53.3 290.5,22.3 301,22.3 301,70.9 290.5,70.9 269.9,39.9 269.9,70.9 
	259.4,70.9 "/>
<polygon class="st1" points="363.7,22.3 374.2,22.3 394.9,53.3 394.9,22.3 405.4,22.3 405.4,70.9 394.9,70.9 374.2,39.9 374.2,70.9 
	363.7,70.9 "/>
<path class="st0" d="M163.9,41.8h-17.3v-7.4c0-1.3,0.6-2.2,1.8-2.2h13.8c1.2,0,1.8,0.9,1.8,2.2V36h11.1v-2.7c0-7.2-5.1-11-11.4-11
	h-16.8c-6.3,0-11.4,3.8-11.4,11v7.3c0,7.2,5.1,11,11.4,11h17.3v7.2c0,1.5-0.6,2.4-1.8,2.4H149c-1.2,0-1.8-0.9-1.8-2.4v-2.1h-11.1V60
	c0,7.2,5.1,11,11.4,11h16.5c6.3,0,11.4-3.8,11.4-11v-7.3C175.3,45.5,170.2,41.7,163.9,41.8"/>
<path class="st1" d="M341.2,22.3H323c-6.3,0-11.4,3.8-11.4,11V60c0,7.2,5.1,11,11.4,11h18.2c6.3,0,11.4-3.8,11.4-11V33.3
	C352.6,26.1,347.5,22.3,341.2,22.3 M341.4,58.8c0,1.5-0.6,2.4-1.8,2.4h-15.1c-1.2,0-1.8-0.9-1.8-2.4V34.3c0-1.3,0.6-2.2,1.8-2.2
	h15.1c1.2,0,1.8,0.9,1.8,2.2V58.8z"/>
<path class="st1" d="M137.1,79.5h6.9v1.2h-5.6v3.4h5.5v1.2h-5.5v3.7h5.6v1.2h-6.9V79.5z"/>
<path class="st1" d="M146.1,79.5h1.3v10.6h-1.3V79.5z"/>
<path class="st1" d="M151.3,81.6v8.5h-1.3V79.5h1.4l6.1,8.4v-8.4h1.3v10.6h-1.3L151.3,81.6z"/>
<path class="st1" d="M165.3,79.5h1.3V86c0,1.9,1,3.2,3,3.2s3-1.2,3-3.2v-6.4h1.3V86c0,2.6-1.4,4.3-4.3,4.3s-4.3-1.7-4.3-4.3
	L165.3,79.5z"/>
<path class="st1" d="M177.8,81.6v8.5h-1.3V79.5h1.3l6.1,8.4v-8.4h1.3v10.6h-1.3L177.8,81.6z"/>
<path class="st1" d="M190.3,80.7H187v-1.2h8.1v1.2h-3.4v9.4h-1.3V80.7z"/>
<path class="st1" d="M196.8,79.5h6.9v1.2h-5.6v3.4h5.5v1.2h-5.5v3.7h5.6v1.2h-6.9V79.5z"/>
<path class="st1" d="M209.2,85.9h-2.1v4.2h-1.3V79.5h4.3c1.7-0.1,3.2,1.1,3.3,2.8c0,0.1,0,0.2,0,0.4c0.1,1.6-1.1,3-2.8,3.1l2.9,4.3
	h-1.6L209.2,85.9z M209.9,80.7h-2.8v4.1h2.8c1.1,0,2-0.9,2-2S211,80.7,209.9,80.7L209.9,80.7z"/>
<path class="st1" d="M216.8,81.6v8.5h-1.3V79.5h1.3l6.1,8.4v-8.4h1.3v10.6H223L216.8,81.6z"/>
<path class="st1" d="M226.7,79.5h7v1.2H228v3.4h5.5v1.2H228v3.7h5.6v1.2h-7V79.5z"/>
<path class="st1" d="M243.3,85.3h-6.2v4.9h-1.3V79.5h1.3v4.6h6.2v-4.6h1.3v10.6h-1.3L243.3,85.3z"/>
<path class="st1" d="M256.2,81.3l-3.6,8.8H252l-3.6-8.8v8.8h-1.3V79.5h1.9l3.3,8.1l3.3-8.1h1.9v10.6h-1.3L256.2,81.3z"/>
<path class="st1" d="M260,79.5h7v1.2h-5.6v3.4h5.5v1.2h-5.5v3.7h5.6v1.2h-7L260,79.5z"/>
<path class="st1" d="M270.3,81.6v8.5H269V79.5h1.4l6.1,8.4v-8.4h1.3v10.6h-1.3L270.3,81.6z"/>
<path class="st1" d="M284.4,79.5h3.6c2.9,0,5.3,2.4,5.3,5.3s-2.4,5.3-5.3,5.3l0,0h-3.6V79.5z M288,88.9c2.3,0,4.1-1.8,4.1-4.1
	c0-2.3-1.8-4.1-4.1-4.1h-2.3v8.3H288z"/>
<path class="st1" d="M295.5,79.5h7v1.2h-5.6v3.4h5.5v1.2h-5.5v3.7h5.6v1.2h-7L295.5,79.5z"/>
<path class="st1" d="M308,85.9h-2.1v4.2h-1.3V79.5h4.3c1.7-0.1,3.2,1.1,3.3,2.8c0,0.1,0,0.2,0,0.4c0.1,1.6-1.1,3-2.8,3.1l2.9,4.3
	h-1.6L308,85.9z M308.6,80.7h-2.8v4.1h2.8c1.1,0,2-0.9,2-2S309.8,80.7,308.6,80.7L308.6,80.7z"/>
<path class="st1" d="M318.3,79.5h3.6c2.9,0,5.3,2.4,5.3,5.3s-2.4,5.3-5.3,5.3h-3.6V79.5z M321.9,88.9c2.3,0,4.1-1.8,4.1-4.1
	c0-2.3-1.8-4.1-4.1-4.1h-2.3v8.3H321.9z"/>
<path class="st1" d="M329.4,79.5h4.7c1.5-0.2,2.8,0.9,3,2.3c0,0.1,0,0.2,0,0.4c0,1.2-0.7,2.2-1.9,2.4c1.2,0.3,2.1,1.4,2.1,2.6
	c0.1,1.5-1.1,2.8-2.6,2.9c-0.1,0-0.3,0-0.4,0h-4.8L329.4,79.5z M333.9,84.1c0.9,0.1,1.7-0.6,1.8-1.5c0-0.1,0-0.2,0-0.2
	c0-0.9-0.7-1.7-1.6-1.7c-0.1,0-0.1,0-0.2,0h-3.1v3.4H333.9z M334,88.9c1,0.1,1.9-0.5,2-1.5c0-0.1,0-0.2,0-0.3c0-1-0.8-1.8-1.8-1.8
	c-0.1,0-0.1,0-0.2,0h-3.2v3.7H334z"/>
<path class="st1" d="M344.9,81.6v8.5h-1.3V79.5h1.4l6.1,8.4v-8.4h1.3v10.6H351L344.9,81.6z"/>
<path class="st1" d="M354.8,79.5h7v1.2h-5.6v3.4h5.5v1.2h-5.5v3.7h5.6v1.2h-7V79.5z"/>
<path class="st1" d="M366.5,80.7h-3.4v-1.2h8v1.2h-3.3v9.4h-1.3L366.5,80.7z"/>
<path class="st1" d="M372.4,89l6-8.3h-6v-1.2h7.6v1.1l-6,8.3h6.1v1.2h-7.8L372.4,89z"/>
<path class="st1" d="M393,87.8h-5.4l-0.9,2.4h-1.5l4.3-10.6h1.6l4.3,10.6h-1.5L393,87.8z M388,86.6h4.6l-2.3-5.9L388,86.6z"/>
<path class="st1" d="M401.2,79.3c1.6,0,3.1,0.7,4.1,2l-1,0.7c-0.7-0.9-1.9-1.5-3.1-1.5c-2.4,0.1-4.2,2.1-4.1,4.5
	c0.1,2.2,1.9,4,4.1,4.1c1.1,0,2.1-0.4,2.9-1.1v-2.2h-3.6v-1.2h5v3.8c-1.1,1.2-2.6,1.8-4.2,1.8c-3,0-5.5-2.5-5.5-5.5
	S398.3,79.3,401.2,79.3L401.2,79.3z"/>
</svg>
